<?xml version="1.0" encoding="utf-8"?>
<!-- Generator: Adobe Illustrator 18.0.0, SVG Export Plug-In . SVG Version: 6.00 Build 0)  -->
<!DOCTYPE svg PUBLIC "-//W3C//DTD SVG 1.1//EN" "http://www.w3.org/Graphics/SVG/1.1/DTD/svg11.dtd">
<svg version="1.1" id="Layer_1" xmlns="http://www.w3.org/2000/svg" xmlns:xlink="http://www.w3.org/1999/xlink" x="0px" y="0px"
	 viewBox="0 0 859.2 238.4" enable-background="new 0 0 859.2 238.4" xml:space="preserve">
<g>
	<rect x="0" y="0" fill="#0E3B58" width="859.2" height="238.4"/>
</g>
<text transform="matrix(1.1195 0 0 1 199.7672 183.039)"><tspan x="0" y="0" opacity="0.62" fill="#00FFFF" stroke="#3FA9F5" stroke-width="9" stroke-miterlimit="10" font-family="'PoiretOne-Regular'" font-size="139" letter-spacing="3.6">dive</tspan><tspan x="258.4" y="0" fill="#F2F2F2" stroke="#FFFFFF" stroke-width="9" stroke-miterlimit="10" font-family="'Lato-Hairline'" font-size="139">in</tspan></text>
<path fill="#1168B7" d="M672.8,167.1c7.6-9.9,41.2-22.2,19.5-23C663.8,143.1,673.5,156.5,672.8,167.1z"/>
<path fill="#1168B7" d="M729.8,179.1c-41.7,0.8-56.3-2.5-58.2-7.4c-2.4,4.4-9.1,7.6-25.3,7.4c-56.1-0.5-40.5,18.2-9.3,17.2
	C746.6,192.9,739.9,178.9,729.8,179.1z"/>
<path opacity="0.4" fill="#2792E2" stroke="#1F8ECC" stroke-width="4" stroke-miterlimit="10" d="M710.6,185.1
	c-21.3-0.7-33.9-2-40.7-3.7c-1.4,0.6-3.8,0.5-4.2-0.7c0-0.1,0-0.1,0-0.2c-3.4,0.3-6.8,0.9-10.2,0.9c-3.3,0.6-7.8,0.7-13.8,0.4
	c-46.2-2.5-35.2,10.4-9.3,11C723.2,194.9,719,185.4,710.6,185.1z"/>
<path opacity="0.2" fill="#5AA6D1" d="M676.5,149.2c-1.3,2.6-3.6,7.1,1.2,7.1c4.8,0,18.8-8.1,21-10.5c1.7-1.9-8.9-1.8-13.5-1.2
	C680.4,145.3,677.6,147,676.5,149.2z"/>
<g opacity="0.63">
	<g>
		<g>
			<g>
				<path fill="#57B4F6" d="M520,64.2c0,0,0.6,0,1.8-0.1c1.2,0,3-0.1,5.2-0.1c4.5,0,11,0.4,18.9,1.9c7.8,1.5,16.9,3.9,26.3,7.9
					c2.4,0.9,4.7,2.1,7.1,3.2c2.4,1.2,4.8,2.3,7.1,3.7c2.4,1.3,4.7,2.7,7.1,4.1c2.3,1.5,4.7,2.9,7,4.6c2.3,1.5,4.5,3.2,6.8,4.9
					c2.2,1.7,4.4,3.4,6.5,5.2c4.3,3.5,8.3,7.2,12.1,10.9c7.6,7.4,14.2,15,19.6,21.7c5.4,6.7,9.5,12.6,12.4,16.8
					c1.4,2.1,2.5,3.8,3.2,4.9c0.7,1.1,1.1,1.7,1.1,1.7s-0.3-0.7-0.9-1.9c-0.6-1.2-1.4-3-2.5-5.3c-2.2-4.6-5.5-11-10-18.5
					c-4.4-7.5-10-16.1-16.7-24.9c-3.4-4.4-7-8.8-10.9-13.1c-1.9-2.2-4-4.3-6.1-6.4c-2.1-2.1-4.2-4.2-6.5-6.2c-2.2-2.1-4.5-4-6.8-6
					c-2.3-1.9-4.6-3.8-7.1-5.5c-2.4-1.8-4.8-3.5-7.2-5.2c-2.5-1.6-4.9-3.2-7.4-4.6c-9.8-5.9-19.8-10.3-28.7-13.3
					c-8.9-3-16.7-4.7-22.2-5.5c-2.8-0.5-5-0.7-6.4-0.9c-1.5-0.2-2.3-0.3-2.3-0.3L520,64.2z"/>
			</g>
		</g>
	</g>
</g>
</svg>
