<?xml version="1.0" encoding="utf-8"?>
<!-- Generator: Adobe Illustrator 18.0.0, SVG Export Plug-In . SVG Version: 6.00 Build 0)  -->
<!DOCTYPE svg PUBLIC "-//W3C//DTD SVG 1.1//EN" "http://www.w3.org/Graphics/SVG/1.1/DTD/svg11.dtd">
<svg version="1.1" xmlns="http://www.w3.org/2000/svg" xmlns:xlink="http://www.w3.org/1999/xlink" x="0px" y="0px"
	 viewBox="0 0 257.8 249.8" enable-background="new 0 0 257.8 249.8" xml:space="preserve">
<g id="anon" display="none">
	<g id="bg" display="inline">
		<ellipse fill="#609DC6" cx="128.9" cy="124.9" rx="128.9" ry="124.9"/>
	</g>
	<text transform="matrix(1 0 0 1 89.3152 173.4107)" display="inline" fill="#BEE0EA" font-family="'Kefa-Regular'" font-size="36">Total</text>
	<text transform="matrix(1 0 0 1 44.3345 206.4283)" display="inline" fill="#BEE0EA" font-family="'Kefa-Regular'" font-size="36">Anonymity</text>
	<g id="Layer_1_1_" display="inline">
		<ellipse fill="#1C1C1C" cx="131.5" cy="54.9" rx="44" ry="43.3"/>
		<path fill="#1C1C1C" d="M67.5,136.8L67.5,136.8c0-25.1,22.6-45.5,50.2-45.5h26.8c27.6,0,50.2,20.5,50.2,45.5l0,0"/>
		<text transform="matrix(1 0 0 1 120.769 77.4143)" fill="#BEE0EA" font-family="'MyriadPro-Regular'" font-size="55.0645">?</text>
	</g>
	<g id="Layer_2" display="inline">
	</g>
</g>
<g id="moneybag" display="none">
	<ellipse display="inline" fill="#609DC6" cx="128.9" cy="124.9" rx="128.9" ry="124.9"/>
	<path display="inline" fill="#E0DFCE" d="M174.6,93.4c-0.2-3-0.8-5.9-1.6-8.6c-3.3-10.3-12.5-16.5-20.3-23.4
		c-3.8-3.4-8.2-7.1-9-12.2c-1-7,3.3-14,6.6-19.8c0.7-0.3,1.3-1,1.9-2.1c0.2-0.4,0.2-0.8,0-1.2c0-0.1,0.1-0.1,0.1-0.2
		c0,0-0.1,0.1-0.1,0.1c-0.5-0.8-1.7-1.1-2.1,0c-0.1,0.3-0.3,0.6-0.5,0.7c-0.1,0-0.2,0.1-0.2,0.1c-0.1,0.1-0.3,0.2-0.4,0.3
		c-1.3,0.4-2.8-1.1-4-0.9c-1.5,0.2-2.7,0.5-3.9,1.5c-2.9,2.3-6.4,4.4-9.2,0.3c-0.6-0.9-1.6-1.6-2.8-1.6c-1,0-2.2,0.5-3,1.2
		c-1.7,1.5-4.2,1.5-5.5-0.5c-0.3-0.5-0.7-0.9-1.2-1.2c-1.5-1-10.7-3.2-10.2,0.2c0.1,0.8,0.6,1.4,1.1,2c5.5,7,5.9,16,1.7,23.7
		c-4.8,8.9-13.8,10.8-20.4,17.6c-0.9,1-1.8,2-2.6,3.2c-7.9,10.5-9.3,25.3-5.6,37.7c7.4,24.7,33.8,36.6,58.1,30.7
		c1.9-0.5,3.8-1.1,5.6-1.8C165.1,132.1,176,112.7,174.6,93.4z"/>
	
		<text transform="matrix(1 0 0 1 112.2363 111.5615)" display="inline" fill="#288E26" font-family="'MyriadPro-Regular'" font-size="63.0322">$</text>
	<path display="inline" fill="#CA7A16" d="M150.4,48.2c-2.3,0.6-4.6,1.1-6.9,1.4c-9.4-2.8-18.9-4.9-28.5-6.3
		c-1.6-0.2-2.3,2.2-0.7,2.5c7.4,1.1,14.7,2.6,21.9,4.5c-7.4,0.1-14.9-1.2-22-3.9c-1.5-0.6-2.2,1.9-0.7,2.5
		c9.6,3.7,19.8,4.8,29.8,3.4c0.8,0.2,1.6,0.5,2.4,0.7c-0.6,1.2,1,2.6,2,1.5c0.2-0.3,0.5-0.5,0.7-0.8c0.5-0.1,0.8-0.5,0.9-1
		c0.8-0.8,1.5-1.6,2.3-2.4C152.5,49.4,151.7,47.9,150.4,48.2z"/>
	<path display="inline" opacity="0.79" fill="#B35705" d="M150.4,46.9c-2.3,0.7-4.6,1.3-6.9,1.7c-9.4-3.3-18.9-5.8-28.5-7.5
		c-1.6-0.3-2.3,2.6-0.7,2.9c7.4,1.3,14.7,3.1,21.9,5.3c-7.4,0.2-14.9-1.4-22-4.6c-1.5-0.7-2.2,2.2-0.7,2.9
		c9.6,4.4,19.8,5.7,29.8,4.1c0.8,0.3,1.6,0.6,2.4,0.9c-0.6,1.4,1,3,2,1.8c0.2-0.3,0.5-0.6,0.7-0.9c0.5-0.1,0.8-0.6,0.9-1.2
		c0.8-0.9,1.5-1.9,2.3-2.8C152.5,48.4,151.7,46.5,150.4,46.9z"/>
	<text transform="matrix(1 0 0 1 37.3152 173.4107)" display="inline" fill="#BEE0EA" font-family="'Kefa-Regular'" font-size="36">No Monthly</text>
	<text transform="matrix(1 0 0 1 92.3345 206.4283)" display="inline" fill="#BEE0EA" font-family="'Kefa-Regular'" font-size="36">Fees</text>
</g>
<g id="grad">
	<ellipse fill="#609DC6" cx="128.9" cy="124.9" rx="128.9" ry="124.9"/>
	<path opacity="0.88" fill="#1A1A1A" d="M142.3,102.5c-4.2-0.3-8.5-0.5-12.7-0.6c-6.8-0.2-13.5-0.1-20.3,0.2
		c-4.7,0.2-14.6,3.3-17.8-1.4c-3.2-4.7-2.8-12.6-2.8-17.9V61.2c0-8.6,7.7-15.7,17-15.7h39.2c9.4,0,17,7.1,17,15.7c0,0,0,21.5,0,21.5
		c0,5.6,0.8,13.1-3.2,17.6c-3.4,3.8-7.1,2.9-11.7,2.5C145.4,102.8,143.9,102.6,142.3,102.5z"/>
	<polygon stroke="#4D4D4D" stroke-miterlimit="10" points="132.5,94.3 35.5,69 120.3,36.7 217.3,62.9 	"/>
	<g id="Layer_7">
		<g>
			<g>
				<path fill="#EBD467" d="M123.5,59.5c-10.3,7-23.4,12.3-29.4,23.9c-3.1,6-4.3,13.4-2.2,19.9c0.5,1.4,1.4,2.6,1.1,4.1
					c-0.2,0.9-0.6,1.7-0.8,2.5c-0.6,2.4,1.2,4.5,2.8,6c0.5,0.5,1.2-0.3,0.7-0.7c-2.3-2.2-3-3.9-1.9-6.8c0.8-2.1-0.2-3.4-0.9-5.3
					c-2.6-6.8-0.4-15.1,3.2-21.1c3.1-5.3,8.6-9.2,13.6-12.5c4.7-3.1,9.7-5.8,14.3-9C124.5,60,124,59.1,123.5,59.5L123.5,59.5z"/>
			</g>
		</g>
		<g opacity="0.67">
			<circle fill="#FCEE21" cx="93.4" cy="112.5" r="3.7"/>
			<path fill="#EBD467" d="M97.6,112.5c0,0,0,0.1,0,0.3c0,0.2-0.1,0.5-0.2,0.8c-0.2,0.7-0.7,1.6-1.7,2.3c-0.5,0.3-1.1,0.6-1.8,0.6
				c-0.2,0-0.3,0-0.5,0c-0.2,0-0.3,0-0.5-0.1c-0.4-0.1-0.7-0.2-1.1-0.3c-0.7-0.3-1.3-0.8-1.7-1.5c-0.4-0.7-0.6-1.4-0.6-2.2
				c0-0.7,0.3-1.5,0.7-2.1c0.4-0.6,1-1.1,1.7-1.4c1.3-0.6,2.8-0.3,3.6,0.4c0.9,0.6,1.3,1.5,1.5,2.1c0.1,0.3,0.1,0.6,0.1,0.7
				c0,0.2,0,0.3,0,0.3L97.6,112.5z M97.1,112.5c0,0,0-0.1,0-0.3c0-0.2,0-0.4-0.1-0.7c-0.2-0.6-0.6-1.4-1.5-2c-0.4-0.3-1-0.5-1.6-0.5
				c-0.6-0.1-1.2,0-1.8,0.3c-0.6,0.3-1.1,0.7-1.5,1.3c-0.4,0.6-0.5,1.2-0.5,1.9c0,0.7,0.2,1.3,0.6,1.9c0.4,0.5,0.9,0.9,1.5,1.2
				c0.3,0.1,0.6,0.2,0.9,0.2c0.1,0,0.3,0,0.5,0c0.1,0,0.3,0,0.4,0c0.6-0.1,1-0.3,1.4-0.6c0.8-0.6,1.2-1.3,1.3-1.9
				c0.1-0.3,0.1-0.4,0.1-0.6c0-0.2,0-0.3,0-0.3L97.1,112.5z"/>
		</g>
		<g>
			<path fill="#EBD467" d="M92,134.1c-0.4-1.4-0.7-2.8-0.9-4.2c-0.2-1.4-0.3-2.9-0.2-4.3s0.2-2.9,0.4-4.3c0.1-0.7,0.3-1.4,0.4-2.1
				c0.1-0.3,0.2-0.7,0.3-1c0.1-0.2,0.1-0.4,0.2-0.6c0.1-0.2,0.8-0.1,0.5,0.4l0-0.1c0,0.6,0,1.1,0.2,1.7c0.1,0.6,0.3,1.1,0.5,1.7
				c0.4,1.1,0.8,2.2,0.9,3.4c-0.1-1.2-0.6-2.3-1-3.3c-0.2-0.5-0.4-1.1-0.6-1.7c-0.2-0.6-0.2-1.2-0.2-1.8l0-0.1c0,0,0,0,0,0
				c0,0,0,0,0,0c0,0,0,0,0,0c-0.1,0.1-0.1,0.3-0.1,0.4c-0.1,0.3-0.2,0.7-0.2,1c-0.1,0.7-0.3,1.4-0.3,2.1c-0.2,1.4-0.2,2.8-0.2,4.2
				c0,1.4,0.2,2.8,0.4,4.2c0.2,1.4,0.6,2.7,1,4.1L92,134.1z"/>
		</g>
		<g opacity="0.52">
			<path fill="#EBD467" d="M96.6,123.7l-2-6.3l-0.6-1.8l1.1,1.5c1.2,1.6,2.2,3.4,2.9,5.2c0.7,1.9,1,3.9,0.9,5.9c0-2-0.4-3.9-1.2-5.7
				c-0.8-1.8-1.8-3.5-3.1-5l0.6-0.3l2.4,6.2L96.6,123.7z"/>
		</g>
		<g>
			<path fill="#EBD467" d="M91.4,116.8C91.4,116.8,91.4,116.7,91.4,116.8c0,0.1,0.1,0.2,0.2,0.3c0.1,0.1,0.2,0.1,0.2,0.1
				c0.1,0,0,0,0,0c0,0,0,0,0,0s0-0.1,0,0c-0.2,0.5-0.4,1.2-0.7,2c-0.5,1.7-1.1,4-1.4,6.4c-0.3,2.4-0.4,4.7-0.4,6.5
				c0,1.8,0.2,3,0.2,3s-0.2-1.2-0.3-3c-0.1-1.8-0.2-4.2,0-6.6c0.2-2.4,0.7-4.8,1.1-6.5c0.2-0.9,0.4-1.6,0.6-2.1c0,0,0.1-0.2,0.1-0.3
				c0.1-0.1,0.1-0.2,0.2-0.2c0.1-0.1,0.3-0.2,0.5-0.2c0.1,0,0.3,0,0.4,0.1c0.1,0.1,0.2,0.2,0.3,0.4c0,0.1,0,0.1,0,0.1L91.4,116.8z"
				/>
		</g>
		<g>
			<path fill="#EBD467" d="M92.7,121.7c0,0-0.1,1-0.2,2.4c-0.1,1.4-0.2,3.4-0.1,5.3c0,1.9,0.1,3.9,0.3,5.3c0.1,1.5,0.3,2.4,0.3,2.4
				s-0.2-1-0.4-2.4c-0.2-1.4-0.5-3.4-0.6-5.3c-0.1-2-0.2-3.9-0.2-5.4c0-1.5,0.1-2.5,0.1-2.5L92.7,121.7z"/>
		</g>
		<g>
			<polygon fill="#EBD467" points="95,115.6 94.9,127.9 94,115.7 			"/>
		</g>
		<g>
			<path fill="#EBD467" d="M93.5,117.4c0,0,0.1,2.4,0.4,4.8c0.3,2.4,0.7,4.8,0.7,4.8s-0.7-2.3-1.2-4.7c-0.5-2.4-0.9-4.8-0.9-4.8
				L93.5,117.4z"/>
		</g>
		<g>
			<path fill="#EBD467" d="M93.6,116.3c0,0-0.4,0.9-0.9,2.2c-0.5,1.3-1.1,3.1-1.6,4.9c-0.5,1.8-0.9,3.6-1.2,5
				c-0.3,1.4-0.4,2.3-0.4,2.3s0.1-0.9,0.2-2.3c0.2-1.4,0.4-3.3,0.8-5.1c0.4-1.8,0.9-3.7,1.3-5c0.4-1.4,0.8-2.2,0.8-2.2L93.6,116.3z"
				/>
		</g>
		<g>
			<polygon fill="#EBD467" points="94.4,114.6 96.5,118.7 93.6,115.1 			"/>
		</g>
		<g>
			<path fill="#EBD467" d="M91.4,116.3C91.4,116.3,91.4,116.3,91.4,116.3C91.4,116.3,91.4,116.2,91.4,116.3c0,0.1,0,0.1,0,0.2
				c0.1,0.2,0.2,0.3,0.3,0.3c0.1,0,0.1,0,0.1,0s0,0,0,0c0,0,0.1-0.1,0,0c-0.1,0.1-0.2,0.2-0.3,0.4c-0.4,0.6-0.7,1.6-1.1,2.8
				c-0.7,2.5-1.5,5.9-1.8,9.4c-0.1,0.9-0.1,1.7,0,2.6c0,0.9,0,1.7-0.2,2.6c-0.3,1.6-0.8,3.1-1,4.4c-0.2,1.3-0.1,2.4,0.1,3.1
				c0.1,0.4,0.2,0.6,0.3,0.8c0.1,0.2,0.1,0.3,0.1,0.3s-0.1-0.1-0.1-0.3c-0.1-0.2-0.2-0.5-0.3-0.8c-0.2-0.7-0.4-1.8-0.2-3.2
				c0.2-1.3,0.6-2.8,0.8-4.4c0.1-0.8,0.1-1.6,0.1-2.5c-0.1-0.9-0.1-1.7-0.1-2.6c0.1-3.5,0.8-7,1.4-9.6c0.3-1.3,0.6-2.4,1-3.1
				c0.1-0.2,0.2-0.4,0.3-0.5c0,0,0.2-0.3,0.3-0.3c0.1-0.1,0.2-0.1,0.3-0.1c0.1,0,0.2,0,0.3,0c0.1,0,0.4,0.2,0.4,0.4
				c0,0.1,0,0.2,0,0.3c0,0,0,0.1,0,0.1c0,0,0,0,0,0L91.4,116.3z"/>
		</g>
		<g opacity="0.52">
			<path fill="#EBD467" d="M96.6,135.7c0,0,0.1-0.3,0.2-0.9c0.1-0.6,0.2-1.4,0.2-2.4c0-1-0.1-2.2-0.3-3.4c-0.2-1.3-0.6-2.5-1-3.8
				c-0.4-1.3-0.8-2.6-1.2-3.8c-0.3-1.2-0.5-2.4-0.6-3.4c0-0.5,0-1,0-1.4c0-0.4,0.1-0.8,0.1-1.1c0.1-0.6,0.2-0.9,0.2-0.9
				s-0.1,0.3-0.2,0.9c0,0.3-0.1,0.7-0.1,1.1c0,0.4,0,0.9,0.1,1.4c0.1,1,0.4,2.2,0.8,3.4c0.4,1.2,0.9,2.5,1.3,3.8
				c0.5,1.3,0.9,2.6,1.2,3.8c0.3,1.3,0.4,2.5,0.5,3.5c0,1,0,1.9-0.1,2.5c-0.1,0.6-0.1,0.9-0.1,0.9L96.6,135.7z"/>
		</g>
		<g>
			<g>
				<path fill="#EBD467" d="M91.4,120.4c1.8,2.9,2.2,6.2,1.2,9.5c-0.2,0.6,0.8,0.9,1,0.3c1.1-3.5,0.6-7.2-1.3-10.3
					C91.9,119.4,91.1,119.9,91.4,120.4L91.4,120.4z"/>
			</g>
		</g>
		<g opacity="0.52">
			<g>
				<path fill="#EBD467" d="M94.2,121.2c2.3,3,4,6.5,4.8,10.2c0.1,0.6,1.1,0.4,1-0.3c-0.9-3.8-2.5-7.3-4.9-10.4
					C94.7,120.2,93.8,120.7,94.2,121.2L94.2,121.2z"/>
			</g>
		</g>
		<g>
			<g>
				<path fill="#EBD467" d="M92.5,112.9c0,0,0.1,0,0.1,0c0.3,0.5,0.2,0.9-0.3,1c-0.3,0.2-0.7,0.2-1,0.3c0.2,0.1,0.4,0.2,0.6,0.3
					c-0.3-1.2-0.6-2.4-0.3-3.6c0.3-1,1.5-1.7,2.4-1.3c0.6,0.2,0.9-0.7,0.3-1c-1.2-0.5-2.5,0.1-3.2,1.1c-1,1.5-0.6,3.3-0.2,5
					c0.1,0.3,0.4,0.4,0.6,0.3c0.9-0.2,2.7-0.9,2.2-2.2c-0.3-0.9-1.2-1.5-2.1-0.8C91.3,112.6,92,113.3,92.5,112.9L92.5,112.9z"/>
			</g>
		</g>
		<g>
			<g>
				<path fill="#EBD467" d="M94.9,112.5c-0.9,0.2-1.2-1.5-1.2-2.1c-0.3,0.1-0.6,0.2-0.9,0.4c1,0.8,1.5,1.9,1.5,3.2c0,0.6,1,0.6,1,0
					c0-1.5-0.6-2.9-1.8-3.9c-0.3-0.3-0.9-0.1-0.9,0.4c0.1,1.4,0.7,3.4,2.4,3.1C95.8,113.3,95.6,112.4,94.9,112.5L94.9,112.5z"/>
			</g>
		</g>
		<g>
			<g>
				<path fill="#EBD467" d="M92.4,118.1c0,1.9,0,3.9,0,5.8c0,0.7,0.9,0.6,1,0c0.2-1.9,0.7-3.7,1.3-5.5c-0.3,0-0.7-0.1-1-0.1
					c0,1.1,0.1,2.1,0,3.2c0,0.6,1,0.6,1,0c0-1.1,0-2.1,0-3.2c0-0.6-0.8-0.7-1-0.1c-0.7,1.9-1.1,3.8-1.4,5.8c0.3,0,0.7,0,1,0
					c0-1.9,0-3.9,0-5.8C93.4,117.5,92.4,117.5,92.4,118.1L92.4,118.1z"/>
			</g>
		</g>
		<g>
			<g>
				<path fill="#EBD467" d="M91.2,118.1c-0.3,1.5-0.6,3.1-0.9,4.6c-0.1,0.6,0.8,0.9,1,0.3c0.3-1.5,0.6-3.1,0.9-4.6
					C92.3,117.8,91.3,117.5,91.2,118.1L91.2,118.1z"/>
			</g>
		</g>
		<g>
			<g>
				<path fill="#EBD467" d="M96.9,118.5c-1.1-2.7-3.5-2.6-5.9-1.8c-0.6,0.2-0.4,0.9,0.1,1c1.2,0.2,2.3,0.4,3.4,0.8
					c0.6,0.2,0.9-0.8,0.3-1c-1.2-0.4-2.4-0.6-3.7-0.8c0,0.3,0.1,0.7,0.1,1c1.8-0.6,3.8-1,4.7,1.1C96.1,119.4,97.1,119.1,96.9,118.5
					L96.9,118.5z"/>
			</g>
		</g>
		<g>
			<g>
				<path fill="#EBD467" d="M96.2,117.1c0.4-0.6,0.1-1.3-0.5-1.6c-1-0.6-1.8,0.6-2.7,0.4c-0.6-0.1-0.9,0.8-0.3,1
					c0.4,0.1,0.8,0,1.2-0.1c0.3-0.1,0.5-0.2,0.7-0.3c0.1,0,0.9-0.2,0.7,0.1C95,117.2,95.9,117.7,96.2,117.1L96.2,117.1z"/>
			</g>
		</g>
		<g>
			<g>
				<path fill="#EBD467" d="M91.2,116.5c1,0,1.9-0.2,2.7-0.6c0.6-0.3,0.1-1.1-0.5-0.9c-0.7,0.3-1.4,0.5-2.2,0.5
					C90.6,115.5,90.6,116.5,91.2,116.5L91.2,116.5z"/>
			</g>
		</g>
		<g>
			<g>
				<path fill="#EBD467" d="M93.1,114.4c-0.2,0-0.3,0-0.5,0c-0.6,0-0.6,1,0,1c0.2,0,0.3,0,0.5,0C93.7,115.4,93.7,114.4,93.1,114.4
					L93.1,114.4z"/>
			</g>
		</g>
		<g opacity="0.44">
			<g>
				<path fill="#A67C52" d="M91.1,113.7c-0.1-0.3-0.2-0.5-0.3-0.8c-0.2-0.6-1.2-0.3-1,0.3c0.1,0.3,0.2,0.5,0.3,0.8
					C90.3,114.5,91.3,114.3,91.1,113.7L91.1,113.7z"/>
			</g>
		</g>
		<g opacity="0.44">
			<g>
				<path fill="#A67C52" d="M92.1,110c-0.1-0.4-0.3-0.7-0.7-0.9c-0.3-0.2-0.6,0-0.7,0.3c-0.9,2.2-1.8,5,0.6,6.5
					c2,1.2,4.3-0.2,5.4-1.9c-0.3-0.1-0.6-0.3-0.9-0.4c0,0.2-0.1,0.4-0.1,0.6c-0.1,0.6,0.8,0.9,1,0.3c0-0.2,0.1-0.4,0.1-0.6
					c0.1-0.6-0.6-0.9-0.9-0.4c-1,1.5-2.9,2.5-4.5,1.3c-1.5-1.1-0.3-3.7,0.2-5c-0.2,0.1-0.5,0.2-0.7,0.3c0.1,0.1,0.1,0.2,0.2,0.3
					C91.3,110.9,92.3,110.6,92.1,110L92.1,110z"/>
			</g>
		</g>
		<g opacity="0.44">
			<g>
				<path fill="#A67C52" d="M94.9,112c0.1-0.1,0.2-0.2,0.3-0.3c-0.3-0.1-0.6-0.2-0.9-0.4c-0.1,0.9-0.2,1.8-0.3,2.8
					c-0.1,0.6,0.8,0.6,1,0.1c0.2-0.5,0.3-0.9,0.5-1.4c0.2-0.6-0.8-0.9-1-0.3c-0.2,0.6-0.5,1.1-0.9,1.5c0.3,0.1,0.6,0.2,0.9,0.4
					c0-0.2,0-0.4,0-0.7c0-0.5-0.7-0.7-0.9-0.3c-0.2,0.3-0.4,0.6-0.7,0.8c0.3,0.1,0.6,0.1,0.8,0.2c0-0.2,0.1-0.5,0.1-0.7
					c0.2-0.4-0.2-1-0.7-0.7c-0.5,0.3-0.7,0.7-0.8,1.2c0.3,0,0.6-0.1,0.9-0.1c0-0.1-0.1-0.2-0.1-0.2c0-0.4-0.4-0.6-0.8-0.4
					c-0.3,0.2-0.7,0.4-1,0.7c0.2,0.2,0.5,0.4,0.7,0.6c0.1-0.3,0.2-0.7,0.3-1c0.1-0.3-0.2-0.6-0.5-0.6c-0.6-0.1-1,0.3-1.2,0.9
					c0.3,0,0.6,0,1,0c-0.1-0.2-0.1-0.4-0.2-0.6c-0.1-0.3-0.5-0.5-0.7-0.3c-0.2,0.1-0.4,0.2-0.5,0.3c0.3,0.1,0.5,0.3,0.8,0.4
					c-0.1-0.5-0.1-0.9-0.2-1.4c-0.3,0-0.7,0.1-1,0.1c1,2.5,4.2,4.5,6.5,2.1c0.4-0.4-0.1-1.1-0.6-0.8c-0.7,0.4-1.5,0.6-2.3,0.7
					c-0.3,0-0.5,0.1-0.7,0.3c-0.1,0.1-0.2,0.4-0.1,0.6c0,0,0,0.1,0.1,0.1c0.1,0.1,0.3,0.3,0.4,0.2c0,0,0.1,0,0.1,0
					c0.3,0,0.5-0.2,0.5-0.5c0,0,0,0,0-0.1c0-0.6-1-0.6-1,0c0,0,0,0,0,0.1c0.2-0.2,0.3-0.3,0.5-0.5c0,0-0.1,0-0.1,0
					c0.1,0.1,0.3,0.2,0.4,0.2c0,0,0-0.1-0.1-0.1c0,0.2-0.1,0.4-0.1,0.6c0.1-0.1,1.1-0.1,1.3-0.2c0.5-0.1,1.1-0.4,1.6-0.6
					c-0.2-0.3-0.4-0.5-0.6-0.8c-1.7,1.8-4,0.2-4.8-1.6c-0.2-0.5-1.1-0.5-1,0.1c0.1,0.5,0.1,0.9,0.2,1.4c0,0.4,0.4,0.6,0.8,0.4
					c0.2-0.1,0.4-0.2,0.5-0.3c-0.2-0.1-0.5-0.2-0.7-0.3c0.1,0.2,0.1,0.4,0.2,0.6c0.1,0.5,0.8,0.5,1,0c0.1,0,0.2-0.1,0.2-0.1
					c-0.2-0.2-0.3-0.4-0.5-0.6c-0.1,0.3-0.2,0.7-0.3,1c-0.1,0.4,0.4,0.8,0.7,0.6c0.3-0.2,0.7-0.4,1-0.7c-0.3-0.1-0.5-0.3-0.8-0.4
					c0,0.3,0,0.5,0.2,0.7c0.2,0.3,0.8,0.3,0.9-0.1c0.1-0.2,0.2-0.4,0.4-0.6c-0.2-0.2-0.5-0.5-0.7-0.7c-0.3,0.5-0.3,0.9-0.2,1.5
					c0.1,0.4,0.6,0.4,0.8,0.2c0.4-0.3,0.6-0.6,0.9-1c-0.3-0.1-0.6-0.2-0.9-0.3c0,0.2,0,0.4,0,0.7c0,0.4,0.5,0.7,0.9,0.4
					c0.5-0.6,0.9-1.2,1.1-2c-0.3-0.1-0.6-0.2-1-0.3c-0.2,0.5-0.3,0.9-0.5,1.4c0.3,0,0.7,0.1,1,0.1c0.1-0.9,0.2-1.8,0.3-2.8
					c0.1-0.5-0.6-0.6-0.9-0.4c-0.1,0.1-0.2,0.2-0.3,0.3C93.8,111.8,94.5,112.5,94.9,112L94.9,112z"/>
			</g>
		</g>
		<g opacity="0.44">
			<g>
				<path fill="#A67C52" d="M95,115.6c-0.8,1.7-3,1.9-4.1,0.3c-0.3-0.6-1.2-0.1-0.9,0.5c0.2,0.4,0.5,0.7,1,0.7
					c0.6,0.1,0.9-0.9,0.3-1c-0.1-0.1-0.3-0.2-0.4-0.3c-0.3,0.2-0.6,0.3-0.9,0.5c1.4,2.3,4.6,2.2,5.8-0.3
					C96.1,115.5,95.3,115,95,115.6L95,115.6z"/>
			</g>
		</g>
		<g opacity="0.44">
			<g>
				<path fill="#A67C52" d="M92.6,116.9c-0.1-0.1-0.2-0.2-0.4-0.3c-0.3-0.2-0.7,0.1-0.8,0.4c-0.1,1.2-0.2,2.5-0.3,3.7
					c0,0.6,0.9,0.6,1,0c0.1-1.2,0.3-2.3,0.6-3.4c-0.3,0-0.6,0.1-0.9,0.1c0.2,0.3,0.3,0.6,0.4,1c0,0.6,0.8,0.7,1,0.1
					c0.2-0.7,0.3-1.5,0.3-2.3c-0.3,0.1-0.6,0.2-0.9,0.3c0.4,0.8,0.8,1.6,1.2,2.3c0.2,0.4,0.8,0.3,0.9-0.1c0.2-0.7,0.3-1.3,0.3-2
					c-0.3,0-0.7,0.1-1,0.1c0.2,0.5,0.4,0.8,0.8,1.2c0.3,0.3,0.8,0.1,0.9-0.4c0.1-0.6,0-1.2-0.1-1.9c-0.3,0.2-0.6,0.3-0.8,0.5
					c0.4,0.3,0.8,0.6,1.2,1c0.5,0.4,1.2-0.3,0.7-0.7c-0.4-0.3-0.8-0.6-1.2-1c-0.4-0.3-0.9,0-0.8,0.5c0.1,0.5,0.1,1.1,0,1.6
					c0.3-0.1,0.6-0.2,0.9-0.4c-0.2-0.2-0.4-0.5-0.5-0.8c-0.2-0.5-1-0.5-1,0.1c0,0.6-0.1,1.2-0.3,1.8c0.3,0,0.6-0.1,0.9-0.1
					c-0.4-0.8-0.8-1.6-1.2-2.3c-0.2-0.4-1-0.2-0.9,0.3c0,0.7-0.1,1.3-0.3,2c0.3,0,0.7,0.1,1,0.1c0-0.6-0.2-1-0.5-1.5
					c-0.2-0.4-0.8-0.3-0.9,0.1c-0.3,1.2-0.5,2.4-0.6,3.7c0.3,0,0.7,0,1,0c0.1-1.2,0.2-2.5,0.3-3.7c-0.3,0.1-0.5,0.3-0.8,0.4
					c0.1,0.1,0.2,0.2,0.4,0.3C92.6,118.1,93.1,117.2,92.6,116.9L92.6,116.9z"/>
			</g>
		</g>
		<g opacity="0.44">
			<g>
				<path fill="#A67C52" d="M95.2,116.4c-1,0.6-2.1,0.8-3.2,0.8c-0.6,0-0.6,1,0,1c1.3,0,2.6-0.3,3.7-0.9
					C96.3,116.9,95.8,116.1,95.2,116.4L95.2,116.4z"/>
			</g>
		</g>
		<g>
			<g>
				<path fill="#EBD467" d="M91.2,125.5c0,2.4,0,4.7,0,7.1c0,0.6,1,0.6,1,0c0-2.4,0-4.7,0-7.1C92.2,124.9,91.2,124.9,91.2,125.5
					L91.2,125.5z"/>
			</g>
		</g>
		<g opacity="0.52">
			<g>
				<path fill="#EBD467" d="M91.8,119.4c0,0,0-0.1,0-0.1c-0.1,0.2-0.2,0.4-0.3,0.6c0.1,0,0.1,0,0.2-0.1c-0.2-0.1-0.4-0.2-0.6-0.3
					c0.4,1.1,0.1,3,0,4.2c0,1.3-0.1,2.6-0.1,3.9c-0.1,2.6-0.1,5.2-0.2,7.9c0.3,0,0.7,0,1,0c-0.4-4-0.6-7.9-0.5-11.9
					c-0.3,0-0.7,0-1,0c0.2,4,0.5,7.9,1.1,11.8c0.3-0.1,0.6-0.2,1-0.3c-0.6-3.9-0.6-7.7,0-11.5c-0.3,0-0.6,0-1,0
					c0.6,3,0.8,5.9,0.8,8.9c0.3,0,0.7,0,1,0c-0.4-3.6-0.4-7.2-0.2-10.9c-0.3,0-0.7,0.1-1,0.1c1,3.1,1.6,6.1,1.7,9.4c0,0.6,1,0.6,1,0
					c0.2-3.1,0.3-6.1,0.2-9.2c-0.3,0-0.7,0.1-1,0.1c0.7,2.3,1.1,4.6,1.3,7.1c0.3,0,0.7,0,1,0c-0.2-2.7-0.5-5.3-0.9-7.9
					c-0.3,0.1-0.6,0.2-1,0.3c0.7,2.3,1.5,4.6,2.5,6.8c0.2,0.5,1,0.1,0.9-0.4c-0.5-2.2-0.8-4.5-0.9-6.8c-0.3,0-0.7,0.1-1,0.1
					c0.5,1.5,1.2,2.9,2,4.3c0.3,0.5,1.1,0.2,0.9-0.4c-0.5-1.8-1-3.5-1.7-5.3c-0.2-0.6-1.2-0.3-1,0.3c0.1,0.3,0.2,0.5,0.3,0.8
					c0.2,0.6,1.2,0.3,1-0.3c-0.1-0.3-0.2-0.5-0.3-0.8c-0.3,0.1-0.6,0.2-1,0.3c0.6,1.7,1.2,3.5,1.7,5.3c0.3-0.1,0.6-0.3,0.9-0.4
					c-0.8-1.3-1.5-2.6-1.9-4c-0.2-0.5-1-0.5-1,0.1c0.1,2.4,0.4,4.7,0.9,7.1c0.3-0.1,0.6-0.3,0.9-0.4c-1-2.1-1.7-4.3-2.4-6.6
					c-0.2-0.6-1.1-0.4-1,0.3c0.4,2.5,0.7,5.1,0.9,7.7c0,0.6,1,0.6,1,0c-0.1-2.5-0.6-4.9-1.3-7.3c-0.2-0.5-1-0.4-1,0.1
					c0.1,3.1,0.1,6.1-0.2,9.2c0.3,0,0.7,0,1,0c-0.1-3.3-0.7-6.5-1.7-9.6c-0.2-0.5-0.9-0.4-1,0.1c-0.2,3.6-0.2,7.3,0.2,10.9
					c0.1,0.6,1,0.7,1,0c0-3.1-0.2-6.1-0.8-9.2c-0.1-0.5-0.9-0.5-1,0c-0.7,4-0.7,8,0,12.1c0.1,0.6,1.1,0.4,1-0.3
					c-0.6-3.8-0.9-7.7-1.1-11.5c0-0.6-1-0.6-1,0c0,4,0.1,8,0.5,11.9c0.1,0.6,1,0.7,1,0c0.1-3,0.1-5.9,0.2-8.9c0-2.2,0.7-5.3,0-7.4
					c-0.1-0.2-0.3-0.4-0.6-0.3c-0.1,0-0.1,0-0.2,0.1c-0.3,0.1-0.4,0.3-0.3,0.6c0,0,0,0.1,0,0.1C90.9,120.3,91.9,120,91.8,119.4
					L91.8,119.4z"/>
			</g>
		</g>
		<g opacity="0.52">
			<g>
				<path fill="#EBD467" d="M97.5,129.2c-0.2,1.6-0.4,3.2-0.7,4.9c0.3,0,0.7,0.1,1,0.1c0.1-0.5,0.1-1.1,0.2-1.6c0.1-0.6-0.9-0.6-1,0
					c-0.1,0.5-0.1,1.1-0.2,1.6c-0.1,0.6,0.9,0.7,1,0.1c0.3-1.7,0.6-3.4,0.8-5.1C98.5,128.6,97.5,128.6,97.5,129.2L97.5,129.2z"/>
			</g>
		</g>
		<g opacity="0.52">
			<g>
				<path fill="#EBD467" d="M93.7,121.8c1.3,3.2,2.1,6.6,2.3,10.1c0,0.6,1,0.6,1,0c-0.2-3.6-0.9-7-2.3-10.3
					C94.4,121,93.4,121.2,93.7,121.8L93.7,121.8z"/>
			</g>
		</g>
		<g>
			<g>
				<path fill="#EBD467" d="M95.4,121.1c-0.3-0.9-0.6-1.7-0.9-2.6c-0.2,0.2-0.4,0.4-0.6,0.6c0.7,0.3,2.6,0.7,2.4,1.8
					c-0.1,0.7-0.3,1.3,0.1,2c0.3,0.6,1.2,0.1,0.9-0.5c-0.3-0.6,0.2-1.4,0-2.1c-0.2-1.3-2.1-1.8-3.1-2.2c-0.3-0.1-0.7,0.3-0.6,0.6
					c0.3,0.9,0.6,1.7,0.9,2.6C94.6,122,95.6,121.7,95.4,121.1L95.4,121.1z"/>
			</g>
		</g>
		<g opacity="0.52">
			<g>
				<path fill="#EBD467" d="M97.1,129.6c-0.3-1.9-0.6-3.8-0.9-5.7c-0.1-0.6-1-0.4-1,0.1c0,1.3,0.1,2.6,0.1,3.9c0,0.6,1,0.6,1,0
					c0-1.3-0.1-2.6-0.1-3.9c-0.3,0-0.7,0.1-1,0.1c0.3,1.9,0.6,3.8,0.9,5.7C96.3,130.5,97.2,130.2,97.1,129.6L97.1,129.6z"/>
			</g>
		</g>
		<g opacity="0.52">
			<g>
				<path fill="#EBD467" d="M98.1,132c-0.6-3.3-1.3-6.7-1.9-10c-0.1-0.6-1.1-0.4-1,0.3c0.6,3.3,1.3,6.7,1.9,10
					C97.3,132.9,98.2,132.6,98.1,132L98.1,132z"/>
			</g>
		</g>
		<g opacity="0.52">
			<g>
				<path fill="#EBD467" d="M95.2,122.2c1,3.2,1.5,6.4,1.6,9.7c0,0.6,1,0.6,1,0c-0.1-3.4-0.6-6.7-1.6-10
					C96,121.3,95,121.6,95.2,122.2L95.2,122.2z"/>
			</g>
		</g>
		<g opacity="0.52">
			<g>
				<path fill="#FCEE21" d="M95.4,121.1c0,0,0.1-0.1,0.1-0.1c0.2-0.1,0.2-0.4,0.1-0.6c-0.2-0.3-0.3-0.4-0.7-0.4
					c-0.2,0-0.4,0.2-0.5,0.4c-0.1,0.4-0.1,0.6,0.1,1.1c0.9,1.8,1.5,3.6,2,5.5c0.8,3.3,1,6.7,1.3,10.1c0.3,0,0.7,0,1,0
					c-0.5-4.4-0.2-10.2-3.4-13.7c-0.3-0.4-1,0-0.8,0.5c1.2,3.5,1.9,7,2.1,10.7c0.3,0,0.7-0.1,1-0.1c-0.6-2.2-1.4-4.2-2.4-6.2
					c-0.2-0.5-0.9-0.2-0.9,0.3c0,0.8,0,1.7,0,2.5c0.3,0,0.7-0.1,1-0.1c-0.2-1.2-0.5-2.2-0.8-3.4c-0.2-0.6-1.1-0.4-1,0.3
					c0.1,0.7,0.2,1.3,0.3,2c0.3-0.1,0.6-0.2,1-0.3c-0.8-2.2-1.7-4.2-2.7-6.3c-0.3-0.5-1.1-0.2-0.9,0.4c1.1,3.1,1.6,6.3,1.6,9.6
					c0.3,0,0.7,0,1,0c-0.1-2.7-0.5-5.3-1.4-7.9c-0.2-0.5-1-0.5-1,0.1c0,0.8,0.1,1.6,0.2,2.4c0.1,0.6,1.1,0.4,1-0.3
					c-0.1-0.7-0.2-1.4-0.2-2.1c-0.3,0-0.7,0.1-1,0.1c0.9,2.5,1.3,5,1.4,7.6c0,0.6,1,0.6,1,0c0-3.4-0.5-6.7-1.6-9.9
					c-0.3,0.1-0.6,0.3-0.9,0.4c1,2,1.9,4,2.6,6c0.2,0.6,1.1,0.4,1-0.3c-0.1-0.7-0.2-1.3-0.3-2c-0.3,0.1-0.6,0.2-1,0.3
					c0.4,1.1,0.7,2.2,0.8,3.4c0.1,0.6,1,0.4,1-0.1c0-0.8,0-1.7,0-2.5c-0.3,0.1-0.6,0.2-0.9,0.3c1,1.9,1.7,3.9,2.3,6
					c0.1,0.5,1,0.4,1-0.1c-0.2-3.8-0.9-7.4-2.1-11c-0.3,0.2-0.6,0.3-0.8,0.5c3,3.3,2.6,8.8,3.1,13c0.1,0.6,1,0.7,1,0
					c-0.2-2.6-0.4-5.2-0.8-7.9c-0.1-0.6-2.5-9.3-3.2-8.8C94.2,120.8,94.9,121.5,95.4,121.1L95.4,121.1z"/>
			</g>
		</g>
		<g>
			<g>
				<path fill="#FCEE21" d="M94,127.9c0.6,0,0.6-1,0-1S93.4,127.9,94,127.9L94,127.9z"/>
			</g>
		</g>
		<g opacity="0.52">
			<g>
				<path fill="#FCEE21" d="M96.3,126.7c0.2,4.6,0.4,9.2,0.6,13.9c0,0.6,1,0.6,1,0c0.2-3.8-0.4-7.4-1.6-11c-0.2-0.5-1-0.4-1,0.1
					c0,1.1-0.1,2.2-0.1,3.4c0,0.6,1,0.6,1,0c0-1.1,0.1-2.2,0.1-3.4c-0.3,0-0.7,0.1-1,0.1c1.2,3.5,1.8,7,1.6,10.7c0.3,0,0.7,0,1,0
					c-0.2-4.6-0.4-9.2-0.6-13.9C97.3,126,96.3,126,96.3,126.7L96.3,126.7z"/>
			</g>
		</g>
	</g>
	<ellipse fill="#808080" cx="123.6" cy="60.8" rx="5.2" ry="3"/>
	<g>
		<g>
			<path fill="#808080" d="M121.9,60c-1.1,0.7-2.1,1.3-3.2,2c-0.4,0.3-0.3,0.9,0.3,0.9c1.5,0,3,0,4.5,0c0.6,0,0.6-1,0-1
				c-1.5,0-3,0-4.5,0c0.1,0.3,0.2,0.6,0.3,0.9c1.1-0.7,2.1-1.3,3.2-2C123,60.5,122.5,59.7,121.9,60L121.9,60z"/>
		</g>
	</g>
	<g id="text">
		<text transform="matrix(1 0 0 1 57.7082 171.7209)" fill="#BEE0EA" font-family="'Kefa-Regular'" font-size="36">Awesome</text>
		<text transform="matrix(1 0 0 1 80.7275 204.7385)" fill="#BEE0EA" font-family="'Kefa-Regular'" font-size="36">Tutors</text>
	</g>
</g>
</svg>
