<?xml version="1.0" encoding="utf-8"?>
<!-- Generator: Adobe Illustrator 18.0.0, SVG Export Plug-In . SVG Version: 6.00 Build 0)  -->
<!DOCTYPE svg PUBLIC "-//W3C//DTD SVG 1.1//EN" "http://www.w3.org/Graphics/SVG/1.1/DTD/svg11.dtd">
<svg version="1.1" id="Layer_1" xmlns="http://www.w3.org/2000/svg" xmlns:xlink="http://www.w3.org/1999/xlink" x="0px" y="0px"
	 viewBox="0 0 256.6 322" enable-background="new 0 0 256.6 322" xml:space="preserve">
<circle fill="#0F4D72" stroke="#FFFFFF" stroke-width="5" stroke-miterlimit="10" cx="128.3" cy="128.3" r="125.8"/>
<polygon fill="none" stroke="#FFFFFF" stroke-width="5" stroke-miterlimit="10" points="196.5,157.3 124.5,149.1 124.8,101.9 
	196.5,86.6 "/>
<polygon id="keyboard" fill="none" stroke="#FFFFFF" stroke-width="4" stroke-miterlimit="10" points="174.4,181.8 120.4,169.8 
	128.9,161.4 182.4,168.3 "/>
<g>
	<g>
		<path fill="#FFFFFF" d="M76.6,101.9c-2,15.1-4.1,30.1-7.1,45.1c-0.4,1.9,2.5,2.7,2.9,0.8c3-15.2,5.2-30.5,7.2-45.9
			C79.9,100,76.9,100.1,76.6,101.9L76.6,101.9z"/>
	</g>
</g>
<g>
	<g>
		<path fill="#FFFFFF" d="M84.3,103.4c4,0.1,7.2-3,9.4-6c2.1-2.9,4.4-6.6,4.6-10.3c0.1-1.9-2.9-1.9-3,0c-0.2,4.7-5.8,13.4-10.9,13.3
			C82.4,100.4,82.4,103.4,84.3,103.4L84.3,103.4z"/>
	</g>
</g>
<g>
	<g>
		<path fill="#FFFFFF" d="M82.6,73.4c0.5-2.6,0.9-5.2,1.4-7.8c0.1-0.5,0.2-1,0.4-1.6c0.1-0.3,0.1-0.5,0.2-0.8
			c-0.8,0.1-0.9,0.2-0.5,0.2c1.1,0.2,1.7,1,2.2,2c0.8,1.8,3.4,0.2,2.6-1.5c-0.9-2.1-3.3-4-5.8-3.4c-1.6,0.4-1.7,3-2,4.3
			c-0.6,2.6-0.9,5.2-1.4,7.8C79.3,74.5,82.2,75.3,82.6,73.4L82.6,73.4z"/>
	</g>
</g>
<g>
	<g>
		<path fill="#FFFFFF" d="M81.8,68c-2.1-2-5.1-1.8-6.9,0.6c-2.2,3-1.5,7.1-1.2,10.5c0.1,1.9,3.1,1.9,3,0c-0.1-1.9-0.3-3.7-0.3-5.6
			c0-1.5,1.2-5.4,3.3-3.4C81.1,71.5,83.2,69.3,81.8,68L81.8,68z"/>
	</g>
</g>
<g>
	<g>
		<path fill="#FFFFFF" d="M86.1,64.7c0.1,4.7-0.4,9.3-1.3,13.9c-0.4,1.9,2.5,2.7,2.9,0.8c1-4.8,1.5-9.7,1.4-14.7
			C89,62.8,86,62.8,86.1,64.7L86.1,64.7z"/>
	</g>
</g>
<g>
	<g>
		<path fill="#FFFFFF" d="M91.9,78.1c-1.3,1.4-1.7,3.4-2.1,5.2c-0.3,1-0.5,2.1-0.9,3c-0.1,0.3-0.2,0.5-0.4,0.7
			c0.3-0.3,0.7,0.1,0.2-0.3c-1.5-1.3-3.6,0.9-2.1,2.1c5.5,4.8,5.6-6.5,7.5-8.7C95.3,78.8,93.2,76.6,91.9,78.1L91.9,78.1z"/>
	</g>
</g>
<g>
	<g>
		<path fill="#FFFFFF" d="M89,87.4c-0.6-2.8-1.6-5.7-1.2-8.6c0.3-1.9-2.6-2.7-2.9-0.8c-0.5,3.5,0.5,6.8,1.2,10.2
			C86.5,90.1,89.4,89.3,89,87.4L89,87.4z"/>
	</g>
</g>
<g>
	<g>
		<path fill="#FFFFFF" d="M75.3,73.5c-1.6-0.7-3.2-0.5-4.6,0.7c-1.3,1.1-1.8,2.6-2.3,4.2c-0.6,1.8,2.3,2.6,2.9,0.8
			c0.3-0.8,0.5-1.6,1-2.3c0.3-0.4,1-0.9,1.5-0.7c0.7,0.3,1.6,0.2,2.1-0.5C76.2,74.9,76,73.8,75.3,73.5L75.3,73.5z"/>
	</g>
</g>
<g>
	<g>
		<path fill="#FFFFFF" d="M68.4,78.7c0,8.9,3.2,16.9,8.4,24c1.1,1.5,3.7,0,2.6-1.5c-5-6.7-8-14.1-8-22.5
			C71.4,76.7,68.4,76.7,68.4,78.7L68.4,78.7z"/>
	</g>
</g>
<g>
	<g>
		<path fill="#FFFFFF" d="M53.9,195c-3.2-10.5-6.2-23.4-2.8-34.2c3.8-12.3,20.4-13.2,30.6-10.3c21,5.9,30.9,27.9,39,46.1
			c0.8,1.8,3.4,0.2,2.6-1.5c-9.2-20.7-21.7-45.9-47.1-48.8c-10.4-1.2-22.2,2-27.3,12c-2.6,5-2.3,11.2-1.9,16.7
			c0.5,7.1,2,14.1,4,20.9C51.6,197.6,54.5,196.8,53.9,195L53.9,195z"/>
	</g>
</g>
<g>
	<g>
		<path fill="#FFFFFF" d="M115.3,183c21,5.8,42.2,11.1,63.4,15.9c1.9,0.4,2.7-2.5,0.8-2.9c-21.3-4.8-42.4-10.1-63.4-15.9
			C114.2,179.6,113.4,182.5,115.3,183L115.3,183z"/>
	</g>
</g>
<g>
	<g>
		<path fill="#FFFFFF" d="M93.4,80.9c1.3-1.4,1.9,1.7,1.9,2.4c0,1.7-0.2,3.2,0,4.9c0.3,1.9,3.2,1.1,2.9-0.8
			c-0.4-2.8,0.8-5.6-1.1-8.2c-1.4-1.9-4.2-2.2-5.9-0.5C90,80.2,92.1,82.3,93.4,80.9L93.4,80.9z"/>
	</g>
</g>
<g>
	<g>
		<path fill="#FFFFFF" d="M82.9,101.6c-2.2,11.5-4.4,22.9-6.6,34.4c-0.4,1.9,2.5,2.7,2.9,0.8c2.2-11.5,4.4-22.9,6.6-34.4
			C86.2,100.5,83.3,99.7,82.9,101.6L82.9,101.6z"/>
	</g>
</g>
<g>
	<g>
		<path fill="#FFFFFF" d="M77.4,146.2c-1.7-17.2,17.9-26,30.2-14.4c4.9,4.6,7.3,11.5,7.7,18c0.2,3.1-0.4,6.2-1.3,9.2
			c-0.6,2.1-3.4,8.5-6.2,8.2c0.5,0.4,1,0.7,1.4,1.1c-0.1-0.2-0.1-0.4-0.2-0.6c-0.6-1.8-3.5-1.1-2.9,0.8c0.1,0.2,0.1,0.4,0.2,0.6
			c0.2,0.7,0.8,1,1.4,1.1c6.4,0.7,9.9-11.5,10.3-16.1c0.8-9.1-2.2-17.7-8.4-24.3c-13.6-14.4-37.2-2.6-35.3,16.6
			C74.6,148.1,77.6,148.1,77.4,146.2L77.4,146.2z"/>
	</g>
</g>
<g>
	<g>
		<path fill="#FFFFFF" d="M132.9,109.5c0-1.2,0-2.5,0-3.7c-1,0-2,0-3,0c0,3.5-0.1,6.9-0.4,10.4c-0.1,1.9,2.9,1.9,3,0
			c0.3-3.5,0.4-6.9,0.4-10.4c0-1.9-3-1.9-3,0c0,1.2,0,2.5,0,3.7C129.9,111.5,132.9,111.5,132.9,109.5L132.9,109.5z"/>
	</g>
</g>
<g>
	<g>
		<path fill="#FFFFFF" d="M132.1,113.4c1.7-0.4,3.4-0.7,5-1.1c1.9-0.4,1.1-3.3-0.8-2.9c-1.7,0.4-3.4,0.7-5,1.1
			C129.4,110.9,130.2,113.7,132.1,113.4L132.1,113.4z"/>
	</g>
</g>
<g>
	<g>
		<path fill="#FFFFFF" d="M140.4,106.1c0,0,0,0.1,0,0.1c0.5-0.4,1-0.7,1.4-1.1c-0.1,0-0.1,0-0.2,0c0.4,0.1,0.7,0.3,1.1,0.4
			c0,0-0.1-0.1-0.1-0.1c0.1,0.6,0.2,1.2,0.2,1.8c0,0,1.8-0.4,1.9-0.4c1-0.3,2.1-0.6,3.1-0.9c-0.6-0.5-1.3-1-1.9-1.4
			c-0.1,2.5,0.1,4.9,0.4,7.4c0.3-0.6,0.7-1.2,1-1.8c-0.9,0.1-1.8,0.3-2.7,0.4c-0.6,0.1-1.2,0.8-1.1,1.4c0.1,1.5,0.5,2.8,1.3,4
			c1.1,1.6,3.7,0.1,2.6-1.5c-0.5-0.8-0.8-1.5-0.9-2.5c-0.4,0.5-0.7,1-1.1,1.4c0.9-0.1,1.8-0.3,2.7-0.4c0.9-0.1,1.2-1.1,1-1.8
			c-0.3-2.2-0.4-4.4-0.3-6.6c0-1-1-1.7-1.9-1.4c-1.5,0.5-3.1,0.9-4.6,1.4c-0.9,0.3-1.6,0.5-2.2,1.3c-0.4,0.6-0.2,1.3,0.2,1.8
			c0.4,0.4,0.8,0.6,1.4,0.6c0.6-0.1,1.3-0.4,1.4-1.1c0,0,0-0.1,0-0.1C143.7,105,140.8,104.2,140.4,106.1L140.4,106.1z"/>
	</g>
</g>
<g>
	<g>
		<path fill="#FFFFFF" d="M154.3,104.9c0.4-0.4,0.8-0.7,1.2-1c0.3-0.1,0.6-0.2,0.9-0.4c1.1-0.1,1.2-0.2,0.4-0.3
			c-0.8,0.5-1.6,1.3-1.8,2.3c-0.3,1.7-0.1,4.7,1.4,6c2,1.7,4.4-0.3,6.2-1.3c1-0.6,2.9-1.2,3.6-2.3c0.6-1,0.1-2.5-0.2-3.5
			c-0.3-1-1.3-1.3-2.2-0.9c-1.5,0.8-1.5,2.4-0.6,3.6c1.2,1.5,3.3-0.6,2.1-2.1c0,0.4,0,0.7,0,1.1c-0.7-0.3-1.5-0.6-2.2-0.9
			c0.3,0.6,0.4,1.3,0.3,1.9c0.2-0.4,0.5-0.9,0.7-1.3c-1.3,0.7-2.5,1.5-3.8,2.2c-0.5,0.3-1,0.6-1.5,0.8c-0.1,0.2-0.2,0.3-0.3,0.5
			c-0.2-0.5-0.4-0.9-0.5-1.4c-0.8-2.5,2.6-2.6,2.5-4.9c-0.2-4.6-6.5-2-8.4-0.2C150.8,104.2,153,106.3,154.3,104.9L154.3,104.9z"/>
	</g>
</g>
<g>
	<g>
		<path fill="#FFFFFF" d="M170.4,111.5c0,0,0,0.1-0.1,0.1c0.7-0.2,1.4-0.4,2.1-0.5c0.4,0.8,0.6,0.8,0.7,0.1c0.1-0.3,0.2-0.7,0.3-1
			c0.3-0.8,0.5-1.6,0.8-2.5c0.5-1.4,3.8-1.3,5-1.5c-0.6-0.6-1.2-1.2-1.8-1.8c-0.3,1.5-0.3,3,0,4.5c0.4,1.9,3.3,1.1,2.9-0.8
			c-0.2-1-0.2-1.9,0-2.9c0.3-1.2-0.7-2-1.8-1.8c-2.6,0.4-5.8,0.2-7,3.2c-0.6,1.4-1,2.9-1.4,4.4c-0.3,1.1-0.2,2.1,0.8,2.8
			c0.7,0.4,1.7,0.2,2.1-0.5c0,0,0-0.1,0.1-0.1C173.9,111.3,171.3,109.8,170.4,111.5L170.4,111.5z"/>
	</g>
</g>
<text transform="matrix(1 0 0 1 56.5587 304.8344)" fill="#FFFFFF" font-family="'Seravek-Light'" font-size="59.3255">learn</text>
</svg>
