<?xml version="1.0" encoding="utf-8"?>
<!-- Generator: Adobe Illustrator 18.0.0, SVG Export Plug-In . SVG Version: 6.00 Build 0)  -->
<!DOCTYPE svg PUBLIC "-//W3C//DTD SVG 1.1//EN" "http://www.w3.org/Graphics/SVG/1.1/DTD/svg11.dtd">
<svg version="1.1" id="Layer_1" xmlns="http://www.w3.org/2000/svg" xmlns:xlink="http://www.w3.org/1999/xlink" x="0px" y="0px"
	 viewBox="0 0 960 960" enable-background="new 0 0 960 960" xml:space="preserve">
<g id="background" display="none">
	<rect x="-384.8" y="252.6" display="inline" fill="#336699" width="10127.5" height="972.7"/>
</g>
<g id="Layer_5" display="none">
	<path display="inline" fill="#336699" stroke="#336699" stroke-miterlimit="10" d="M860,1090.2H201.7
		c-176.2,0-317.5-140.3-317.5-317.5V640.8c0-173,140.3-314.4,314.4-314.4h658.3c173,0,317.5,143.5,317.5,317.5v131.9
		C1176.5,949.9,1033,1090.2,860,1090.2z"/>
</g>
<g id="rough_x5F_logo">
	<g>
		<path fill="#FFFFFF" d="M324.9,542c0,0,0,3.2,3.2,11.6c3.2,6.3,6.3,17.9,6.3,24.3c0,3.2,3.2,6.3,9.5,9.5
			c3.2,3.2,9.5,9.5,11.6,11.6c9.5,9.5,21.1,11.6,32.7,17.9c14.8,3.2,29.5,6.3,47.5,6.3s39-6.3,60.1-11.6
			c42.2-14.8,83.3-42.2,122.4-74.9c39-32.7,74.9-71.7,104.4-110.8c14.8-21.1,27.4-39,39-60.1s21.1-39,29.5-57
			c9.5-17.9,17.9-32.7,24.3-47.5c6.3-14.8,11.6-27.4,14.8-39c9.5-21.1,11.6-32.7,11.6-32.7l65.4,17.9c0,0-3.2,14.8-11.6,39
			c-3.2,11.6-9.5,27.4-14.8,42.2c-6.3,14.8-14.8,35.9-24.3,53.8c-35.9,78.1-96,179.3-182.5,260.6c-42.2,42.2-92.8,78.1-146.6,101.3
			c-27.4,11.6-57,21.1-86.5,24.3c-29.5,3.2-60.1,0-86.5-6.3c-27.4-6.3-50.6-17.9-68.6-29.5c-17.9-11.6-32.7-24.3-45.4-35.9
			c-14.8-11.6-24.3-14.8-29.5-17.9c-6.3-3.2-9.5-6.3-9.5-6.3L324.9,542z"/>
	</g>
	<path fill="none" stroke="#000000" stroke-width="4" stroke-miterlimit="10" d="M587.6,353.2"/>
	<g>
		<path fill="#FFFFFF" d="M315.4,638c-14.8,17.9-35.9,32.7-60.1,47.5c-27.4,14.8-57,24.3-89.7,27.4c-24.3,3.2-45.4,3.2-63.3-3.2
			s-35.9-11.6-50.6-24.3c-14.8-11.6-24.3-24.3-32.7-39c-9.5-14.8-14.8-32.7-17.9-53.8c-6.3-45.4,6.3-81.2,32.7-107.6
			c27.4-27.4,68.6-45.4,122.4-53.8c21.1-3.2,42.2-6.3,65.4-11.6c24.3-3.2,42.2-6.3,60.1-9.5l-3.2-14.8
			c-6.3-53.8-42.2-74.9-104.4-68.6c-24.3,3.2-47.5,9.5-71.7,17.9c-21.1,9.5-42.2,17.9-60.1,29.5L-3.2,269.9
			c24.3-14.8,50.6-29.5,83.3-42.2c32.7-11.6,68.6-21.1,107.6-27.4c71.7-9.5,131.9,3.2,176.2,32.7c45.4,29.5,71.7,81.2,83.3,170.9
			c0,24.3,0,47.5,0,71.7c0,45.4-3.2,86.5-3.2,131.9c0,17.9,0,32.7,0,50.6c0,3.2,3.2,14.8-3.2,17.9c-3.2,3.2-21.1-3.2-27.4-3.2
			c-17.9-3.2-39-6.3-57-11.6C346,652.8,331.3,646.5,315.4,638z M186.7,599c14.8,3.2,32.7,0,47.5-3.2c14.8-3.2,29.5-6.3,42.2-11.6
			l6.3-71.7c-17.9,0-32.7,0-45.4,0c-14.8,0-27.4,0-39,0c-35.9,0-53.8,14.8-57,42.2c0,11.6,3.2,21.1,11.6,29.5
			C157.2,592.7,168.8,595.8,186.7,599z"/>
	</g>
	<g>
		<path fill="#FFFFFF" d="M952.6,691.8l-14.8,17.9l0,0c-9.5,6.3-11.6,9.5-17.9,9.5c-6.3,0-11.6,3.2-17.9,3.2
			c-11.6,0-21.1-6.3-32.7-9.5c-21.1-9.5-39-17.9-60.1-29.5c-17.9-11.6-35.9-24.3-53.8-35.9c-9.5-6.3-17.9-11.6-24.3-17.9
			c-9.5-6.3-14.8-14.8-24.3-21.1c-29.5-27.4-60.1-60.1-83.3-92.8c-23.2-32.7-47.5-65.4-65.4-104.4c-17.9-35.9-35.9-74.9-45.4-117.1
			c-6.3-21.1-9.5-42.2-9.5-65.4c0-11.6,3.2-24.3,6.3-35.9c3.2-11.6,11.6-27.4,24.3-35.9c6.3-6.3,14.8-9.5,21.1-11.6h3.2h3.2h3.2
			c3.2,0,6.3,0,11.6,0c11.6,0,24.3,0,35.9,6.3c21.1,6.3,39,17.9,57,27.4c32.7,21.1,65.4,45.4,96,71.7l-11.6,14.8
			c-32.7-24.3-65.4-42.2-101.3-57c-17.9-9.5-32.7-14.8-50.6-14.8c-9.5,0-14.8,0-21.1,0H576h-3.2h-3.2c3.2,0,0,0,0,0
			c-3.2,0-3.2,3.2-3.2,3.2c-3.2,6.3-6.3,21.1-6.3,35.9s6.3,32.7,11.6,47.5c11.6,32.7,29.5,65.4,50.6,96
			c42.2,60.1,89.7,117.1,146.6,158.2c6.3,6.3,14.8,11.6,21.1,14.8c9.5,6.3,14.8,9.5,21.1,14.8c14.8,9.5,29.5,17.9,45.4,24.3
			c14.8,6.3,29.5,11.6,47.5,17.9c9.5,3.2,14.8,3.2,24.3,9.5c3.2,3.2,6.3,9.5,9.5,11.6c3.2,2.1,3.2,3.2,6.3,6.3c0,3.2,0,3.2,3.2,6.3
			c0,0,0,0,3.2,0l0,0l0,0l0,0c0,3.2,0-6.3,0,6.3l0,0l9.5,21.1L952.6,691.8z"/>
	</g>
	<path stroke="#000000" stroke-miterlimit="10" d="M872.4,159.1"/>
	<path fill="#FFFFFF" stroke="#FFFFFF" stroke-miterlimit="10" d="M812.3,198.1l78.1-57l35.9,89.7c3.2,6.3-3.2,9.5-11.6,9.5
		l-96-27.4C809.1,209.7,806,203.4,812.3,198.1z"/>
	<path fill="#FFFFFF" stroke="#FFFFFF" stroke-miterlimit="10" d="M914.6,700.3L914.6,700.3c-9.5-3.2-39-11.6-42.2-29.5l0,0
		c0-17.9,14.8-32.7,39-35.9l0,0c14.8-3.2,39,11.6,42.2,29.5l0,0C952.6,682.3,932.6,703.4,914.6,700.3z"/>
</g>
<g id="Layer_4" display="none">
</g>
<g id="text" display="none">
	
		<text transform="matrix(0.9913 0 0 1 1354.9828 940.6949)" display="inline" opacity="0.25" fill="#FFFFFF" enable-background="new    " font-family="'Seravek-Light'" font-size="766.3701" letter-spacing="-20.2">{assignmentexchange}</text>
</g>
</svg>
