<?xml version="1.0" encoding="utf-8"?>
<!-- Generator: Adobe Illustrator 17.0.0, SVG Export Plug-In . SVG Version: 6.00 Build 0)  -->
<!DOCTYPE svg PUBLIC "-//W3C//DTD SVG 1.1//EN" "http://www.w3.org/Graphics/SVG/1.1/DTD/svg11.dtd">
<svg version="1.1" xmlns="http://www.w3.org/2000/svg" xmlns:xlink="http://www.w3.org/1999/xlink" x="0px" y="0px"
	 width="496.592px" height="385.451px" viewBox="0 0 496.592 385.451" enable-background="new 0 0 496.592 385.451"
	 xml:space="preserve">
<g id="Layer_3">
	<rect x="0.5" y="0.5" fill="#15537D" stroke="#000000" stroke-miterlimit="10" width="495.592" height="384.451"/>
</g>
<g id="Layer_2">
	<path fill="#FFFFFF" d="M456.718,320.939H31.683c-5.824,0-10.589-4.765-10.589-10.589V50.968c0-5.824,4.765-10.589,10.589-10.589
		h425.035c5.824,0,10.589,4.765,10.589,10.589v259.381C467.308,316.173,462.543,320.939,456.718,320.939z"/>
	<g id="rough_x5F_logo">
		<g>
			<path fill="#1553CC" d="M399.916,128.002c8.314-30.413,10.178-38.369,28.554-84.957"/>
			<g>
				<path fill="#33698D" d="M439.206,94.092c0,0-0.765-3.088-1.914-7.719c-0.563-2.349-1.221-5.09-1.925-8.026
					c-0.601-2.996-1.242-6.192-1.883-9.388c-2.556-12.808-5.031-25.827-5.031-25.827l-0.022-0.081l-0.088,0.033v-0.032l0.033,0.053
					c0,0-10.5,7.867-21.107,15.945c-2.654,2.025-5.294,4.051-7.782,5.95c-2.447,2.012-4.725,3.889-6.683,5.499
					c-3.936,3.286-6.557,5.476-6.557,5.476s4.07-0.088,8.139-0.177c4.056-0.052,8.113-0.104,8.113-0.104s-1.067,3.033-2.669,7.583
					c-0.4,1.138-0.833,2.37-1.292,3.673c-0.46,1.303-0.846,2.722-1.299,4.166c-0.88,2.899-1.82,5.991-2.759,9.083
					c-0.469,1.546-0.938,3.093-1.399,4.615c-0.415,1.5-0.823,2.976-1.217,4.405c-0.786,2.856-1.521,5.521-2.15,7.806
					c-1.258,4.569-2.097,7.615-2.097,7.615l24.596,6.724c0,0,0.829-3.009,2.072-7.522c0.621-2.257,1.346-4.889,2.123-7.71
					c0.389-1.409,0.792-2.865,1.2-4.344c0.436-1.436,0.88-2.894,1.323-4.353c0.885-2.917,1.771-5.835,2.601-8.57
					c0.428-1.365,0.786-2.696,1.225-3.938c0.438-1.242,0.852-2.416,1.234-3.5c1.528-4.336,2.546-7.226,2.546-7.226
					s3.161,2.491,6.322,4.982C436.033,91.637,439.206,94.092,439.206,94.092z"/>
			</g>
		</g>
		<g>
			<path fill="#15537D" d="M182.618,224.291c0,0,0,1.349,1.349,4.89c1.349,2.656,2.656,7.546,2.656,10.244
				c0,1.349,1.349,2.656,4.005,4.005c1.349,1.349,4.005,4.005,4.89,4.89c4.005,4.005,8.895,4.89,13.785,7.546
				c6.239,1.349,12.436,2.656,20.024,2.656c7.588,0,16.44-2.656,25.335-4.89c17.789-6.239,35.115-17.789,51.598-31.574
				c16.44-13.785,31.574-30.225,44.011-46.71c15.878-22.637,29.098-47.067,40.143-72.396c2.802-6.425,4.928-13.367,8.06-19.618
				c3.739-7.463,2.017-6.027,9.389-5.586c3.784,0.244,9.079,1.846,12.504,3.348c7.53,3.3,7.171,2.782,4.861,11.738
				c-15.203,58.967-52.93,114.7-95.446,157.215c-17.789,17.789-39.12,32.923-61.799,42.703c-11.55,4.89-24.028,8.895-36.464,10.244
				s-25.335,0-36.464-2.656c-11.55-2.656-21.33-7.546-28.918-12.436c-7.546-4.89-13.785-10.244-19.138-15.134
				c-6.239-4.89-10.244-6.239-12.436-7.546c-2.656-1.349-4.005-2.656-4.005-2.656L182.618,224.291z"/>
		</g>
		<path fill="#15537D" stroke="#000000" stroke-width="4" stroke-miterlimit="10" d="M293.359,144.702"/>
		<g>
			<path fill="#15537D" d="M178.613,264.759c-6.239,7.546-15.134,13.785-25.335,20.024c-11.55,6.239-24.028,10.244-37.813,11.55
				c-10.244,1.349-19.138,1.349-26.684-1.349s-15.134-4.89-21.33-10.244c-6.239-4.89-10.244-10.244-13.785-16.44
				c-4.005-6.239-6.239-13.785-7.546-22.679c-2.656-19.138,2.656-34.23,13.785-45.359c11.55-11.55,28.918-19.138,51.598-22.679
				c8.895-1.349,17.789-2.656,27.569-4.89c10.244-1.349,17.789-2.656,25.335-4.005l-1.349-6.239
				c-2.656-22.679-17.789-31.574-44.01-28.918c-10.244,1.349-20.024,4.005-30.225,7.546c-8.895,4.005-17.789,7.546-25.335,12.436
				l-19.18-43.925c10.244-6.239,21.33-12.436,35.115-17.789c13.785-4.89,28.918-8.895,45.359-11.55
				c30.225-4.005,55.602,1.349,74.277,13.785c19.138,12.436,30.225,34.23,35.115,72.043c0,10.244,0,20.024,0,30.225
				c0,19.138-1.349,36.464-1.349,55.602c0,7.546,0,13.785,0,21.33c0,1.349,1.349,6.239-1.349,7.546
				c-1.349,1.349-8.895-1.349-11.55-1.349c-7.546-1.349-16.44-2.656-24.028-4.89C191.513,270.998,185.316,268.342,178.613,264.759z
				 M124.36,248.319c6.239,1.349,13.785,0,20.024-1.349c6.066-1.312,11.864-3.038,17.789-4.89c0.498,0,2.446-27.302,2.343-30.216
				c-6.272-0.055-12.551-0.009-18.826-0.009c-6.239,0-11.55,0-16.44,0c-15.134,0-22.679,6.239-24.028,17.789
				c0,4.89,1.349,8.895,4.89,12.436C111.924,245.663,116.814,246.97,124.36,248.319z"/>
		</g>
		<g>
			<path fill="#15537D" d="M447.414,287.535c-11.865,36.033-67.034-7.971-83.319-18.771c-4.005-2.656-7.546-4.89-10.244-7.546
				c-4.005-2.656-6.239-6.239-10.244-8.895c-12.436-11.55-25.335-25.335-35.115-39.12c-9.78-13.785-20.024-27.569-27.569-44.01
				c-7.545-15.132-15.132-31.571-19.137-49.359c-4.032-17.906-7.973-40.509,6.13-55.193c15.446-16.082,44.237-3.347,59.757,6.668
				c13.785,8.895,27.569,19.138,40.469,30.225c0,0-4.89,6.239-4.894,6.236c-19.079-14.177-45.966-31.227-70.608-30.697
				c-2.184,0.047-4.456,0.245-6.335,1.363c-10.174,6.06-2.458,27.656,0.351,35.575c4.89,13.785,12.436,27.569,21.33,40.469
				c29.77,42.397,65.317,76.091,113.87,95.338c6.265,2.484,12.659,5.004,17.855,9.296
				C448.014,265.971,450.741,277.428,447.414,287.535z"/>
		</g>
		<path fill="#15537D" stroke="#000000" stroke-miterlimit="10" d="M413.416,62.879"/>
	</g>
	<path fill="#FFFFFF" d="M351.625,354.566c0,17-43.251,0-96.604,0s-96.604,17-96.604,0c0-14,43.251-28.213,96.604-28.213
		S351.625,340.566,351.625,354.566z"/>
</g>
</svg>
